<svg width="74" height="82" viewBox="0 0 74 82" fill="none" xmlns="http://www.w3.org/2000/svg">
<path d="M0.571207 36.512V45.43C5.21221 45.43 6.21321 48.615 6.21321 53.256V63.175C6.21321 78.463 11.9462 81.193 23.5032 81.193H25.5052V72.275H23.5032C19.4082 72.275 16.6782 70.455 16.6782 63.448V50.89C16.6782 45.612 14.4942 42.882 11.0362 41.062V40.88C14.4942 39.06 16.6782 36.33 16.6782 31.143V18.221C16.6782 11.578 19.4082 9.75799 23.5032 9.75799H25.5052V0.839995H23.5032C11.9462 0.839995 6.21321 3.206 6.21321 18.494V28.777C6.21321 33.418 5.21221 36.603 0.571207 36.512ZM73.4196 36.512C68.7786 36.603 67.7776 33.418 67.7776 28.777V18.494C67.7776 3.206 62.0446 0.839995 50.4876 0.839995H48.4856V9.75799H50.4876C54.5826 9.75799 57.3126 11.578 57.3126 18.221V31.143C57.3126 36.33 59.4966 39.06 62.9546 40.88V41.062C59.4966 42.882 57.3126 45.612 57.3126 50.89V63.448C57.3126 70.455 54.5826 72.275 50.4876 72.275H48.4856V81.193H50.4876C62.0446 81.193 67.7776 78.463 67.7776 63.175V53.256C67.7776 48.615 68.7786 45.43 73.4196 45.43V36.512Z" fill="#5C00D1"/>
</svg>
